<?xml version="1.0" encoding="UTF-8" standalone="no"?>
<!-- Uploaded to: SVG Repo, www.svgrepo.com, Generator: SVG Repo Mixer Tools -->

<svg
   version="1.1"
   id="Uploaded to svgrepo.com"
   width="800px"
   height="800px"
   viewBox="0 0 32 32"
   xml:space="preserve"
   sodipodi:docname="edf00a04-82b5-4383-bb07-87a9d9b30cf6.svg"
   xmlns:inkscape="http://www.inkscape.org/namespaces/inkscape"
   xmlns:sodipodi="http://sodipodi.sourceforge.net/DTD/sodipodi-0.dtd"
   xmlns="http://www.w3.org/2000/svg"
   xmlns:svg="http://www.w3.org/2000/svg"><defs
   id="defs1" /><sodipodi:namedview
   id="namedview1"
   pagecolor="#ffffff"
   bordercolor="#000000"
   borderopacity="0.25"
   inkscape:showpageshadow="2"
   inkscape:pageopacity="0.0"
   inkscape:pagecheckerboard="0"
   inkscape:deskcolor="#d1d1d1" />
<style
   type="text/css"
   id="style1">
	.linesandangles_een{fill:#ffffff;}
</style>
<path
   class="linesandangles_een"
   d="M21,12.17V6c0-1.206-0.799-3-3-3s-3,1.794-3,3v2.021L10.054,13H6c-1.105,0-2,0.895-2,2v9h2v-7  l12,12l10-10L21,12.17z M18,5c0.806,0,0.988,0.55,1,1v4.17l-2-2V6.012C17.012,5.55,17.194,5,18,5z M18,26l-9-9l6-6v6h2v-6.001L25,19  L18,26z M4,26h2v2H4V26z"
   id="path1" />
</svg>
